<?xml version="1.0" encoding="utf-8"?>
<!-- Generator: Adobe Illustrator 19.2.1, SVG Export Plug-In . SVG Version: 6.00 Build 0)  -->
<svg version="1.1" id="layer" xmlns="http://www.w3.org/2000/svg" xmlns:xlink="http://www.w3.org/1999/xlink" x="0px" y="0px"
	 viewBox="0 0 652 652" style="enable-background:new 0 0 652 652;" xml:space="preserve">
<g>
	<path id="path5899" d="M152.5,354.5h14.4v-66.2h-14.4c-18.3,0-33.1,14.6-33.1,33.2C119.4,339.9,134.2,354.5,152.5,354.5z
		 M93.7,310.7l23.3-40.5H70.2L93.7,310.7z M93.7,332.2l-23.4,40.5H117L93.7,332.2z M34.7,288.3H20.3v66.2h14.4
		c18.3,0,33.1-14.6,33.1-33.1C67.8,302.9,53.1,288.3,34.7,288.3z"/>
	<path id="path5901" d="M205.7,340.4h13.9c12.6,0,19.7-9.3,19.7-18.9c0-9.7-7.1-18.9-19.7-18.9h-13.9V340.4z M219.2,310.2
		c7,0,11,5.5,11,11.2c0,5.7-4,11.2-11,11.2h-4.6v-22.5H219.2z M264.4,340.4h10.4l-12.3-19l12.1-18.8h-10.2L257,315l-7.6-12.5H239
		l12.2,18.8l-12.3,19H249l7.7-12.6L264.4,340.4z M293.9,341c10.9,0,16.8-6.5,18-14.8h-9c-0.8,3.9-4.1,6.9-8.8,6.9
		c-6.8,0-10.3-5.4-10.3-11.7c0-6.3,3.5-11.7,10.3-11.7c4.7,0,7.9,2.9,8.8,6.9h9c-1.2-8.3-7.1-14.8-18-14.8
		c-12.1,0-19.2,9.3-19.2,19.6C274.7,331.8,281.7,341,293.9,341z M314.9,335.4c0,3,2.4,5.5,5.5,5.5c3.1,0,5.5-2.5,5.5-5.5
		s-2.4-5.5-5.5-5.5C317.3,329.9,314.9,332.4,314.9,335.4z M326.5,313.2v6.7h4.3v11c0,7.5,3.6,9.8,10,9.8c2.4,0,4.2-0.2,5.4-0.4v-6.9
		c-1.1,0.2-2.6,0.3-3.4,0.3c-2.2,0-3.4-0.7-3.4-3.5v-10.4h6.2v-6.7h-6.2v-8h-8.6v8H326.5z M376.3,332.1h-8.2
		c-0.9,1.6-2.5,2.8-5.2,2.8c-3.9,0-5.8-2.5-6-5.9h19.8c0.2-1.3,0.2-2.2,0.2-3.2c0-7.2-5-13.4-14-13.4c-9.3,0-14.3,6.5-14.3,14.3
		c0,7.8,5.1,14.3,14.4,14.3C370.5,341.1,374.9,337.1,376.3,332.1z M362.9,318.5c3.3,0,5.4,2,5.7,5.3h-11.5
		C357.4,320.5,359.7,318.5,362.9,318.5z M408.4,323.6c-1.1-6.3-5.7-11.2-13.9-11.2c-9.2,0-14.8,6.6-14.8,14.3
		c0,7.7,5.6,14.3,14.8,14.3c8.2,0,12.9-4.9,13.9-11.2h-8.6c-0.7,2.4-2.6,3.9-5.3,3.9c-3.8,0-6.2-3.2-6.2-7s2.4-7.1,6.2-7.1
		c2.7,0,4.5,1.6,5.2,3.9H408.4z M412.3,340.4h8.6v-14.2c0-3.8,1.8-6.3,5.3-6.3c3.7,0,4.8,2.3,4.8,5.5v15h8.6v-15.6
		c0-7.7-3.4-12.2-10.3-12.2c-4,0-6.9,1.8-8.4,4.6v-16.2h-8.6V340.4z M444.9,340.4h8.6v-14.2c0-3.8,1.8-6.3,5.3-6.3
		c3.7,0,4.8,2.3,4.8,5.5v15h8.6v-15.6c0-7.7-3.4-12.2-10.3-12.2c-4,0-7,1.8-8.5,4.6v-3.9h-8.5V340.4z M491.2,341.1
		c9.5,0,15.1-6.6,15.1-14.3c0-7.8-5.6-14.3-15.1-14.3c-9.4,0-15,6.6-15,14.3C476.2,334.5,481.9,341.1,491.2,341.1z M491.2,333.7
		c-3.9,0-6.4-3.1-6.4-6.9c0-3.8,2.5-6.9,6.4-6.9s6.5,3.2,6.5,6.9C497.7,330.6,495.1,333.7,491.2,333.7z M510.5,340.4h8.6v-39.4h-4.3
		h-4.3V340.4z M538.2,341.1c9.5,0,15.1-6.6,15.1-14.3c0-7.8-5.6-14.3-15.1-14.3c-9.4,0-15,6.6-15,14.3
		C523.2,334.5,528.9,341.1,538.2,341.1z M538.2,333.7c-3.9,0-6.4-3.1-6.4-6.9c0-3.8,2.5-6.9,6.4-6.9c3.9,0,6.5,3.2,6.5,6.9
		C544.7,330.6,542.1,333.7,538.2,333.7z M586.3,340.9v-27.7h-8.5v4c-1.6-2.9-5.1-4.7-8.6-4.7c-7.9,0-13.2,6.2-13.2,14.3
		c0,8.1,5.5,13.8,13.3,13.8c3.5,0,6.9-1.7,8.4-4.2v4.7c0,3.9-2.1,6-6.2,6c-3.6,0-5.6-1.7-6-4.2h-8.5c0.5,6,5.3,10.4,14.3,10.4
		C581.4,353.3,586.3,348.8,586.3,340.9z M571.1,333.7c-3.8,0-6.4-3.2-6.4-6.9s2.6-6.9,6.4-6.9c3.9,0,6.6,3.2,6.6,6.9
		S575,333.7,571.1,333.7z M607.9,344.3l12.4-31.1h-8.8l-6.3,16.7l-6.8-16.8h-9.4l11.7,27.3l-0.7,1.7c-1.1,2.7-2.5,3.5-4.6,3.5
		c-0.7,0-1.9-0.2-2.8-0.3v7.2c1,0.2,2.2,0.3,3.7,0.3C602.8,352.8,605.7,350.1,607.9,344.3z"/>
</g>
</svg>
